<svg xmlns="http://www.w3.org/2000/svg" viewBox="0 0 260 50" fill="#234c8f">
  <path d="M77 16.1c-2.1-.9-3.7-1.4-5.1-1.4-.8 0-1.5.1-2.1.5-.6.3-.8.8-.8 1.3 0 .4.1.8.3 1.1.2.2 1.3.9 3.2 1.9s3.2 2 4.1 2.9 1.3 2 1.3 3.4c0 1.8-.5 3.1-1.8 4.1-1.2 1-2.9 1.5-5.1 1.5-.4 0-.9 0-1.1-.1-.2 0-.7-.1-1.1-.1-.4-.1-.9-.1-1.3-.3-.4-.1-1.2-.5-2.3-1l-1.2-.5 1.5-3.4c1.2.7 2.3 1.1 3.1 1.4.8.3 1.6.4 2.5.4s1.5-.2 2.1-.6c.6-.3.8-.8.8-1.4 0-.4-.1-.8-.3-1.1-.2-.3-.7-.7-1.3-1l-3-1.7c-1.7-1-2.9-1.9-3.5-2.6-.6-.5-1-1.5-1-2.5s.2-1.9.7-2.5c.4-.7 1-1.2 1.7-1.7.7-.4 1.3-.8 2.1-1 .8-.2 1.7-.3 2.8-.3 1.3 0 2.3.1 3.1.3.8.2 1.3.4 1.8.6.5.2 1 .4 1.5.7l-1.6 3.1zm89.5 13.8c-1.3 1-3.2 1.4-5.5 1.4-1.2 0-2.3-.1-3-.3-.9-.2-1.7-.7-2.5-1.2-.9-.6-1.6-1.3-1.9-2.3-.3-1-.5-2.3-.5-4.1v-11.8h3.6v12c0 2.9 1.6 4.3 4.6 4.3 1.4 0 2.4-.3 3.2-1.1.7-.8 1.1-1.8 1.1-3.2v-12h3.7v11.8c0 1.8-.2 3.2-.5 4.1-.6.8-1.3 1.6-2.3 2.4zm18.2-13.8c-2.1-.9-3.7-1.4-5-1.4-.9 0-1.6.1-2.1.5-.5.3-.8.8-.8 1.3 0 .4.1.8.4 1.1.2.2 1.3.9 3.2 1.9 1.9 1 3.2 2 4.1 2.9s1.3 2 1.3 3.4c0 1.8-.6 3.1-1.8 4.1s-2.9 1.5-5.1 1.5c-.5 0-.9 0-1.1-.1-.3 0-.6-.1-1.1-.1-.4-.1-.9-.1-1.3-.3-.4-.1-1.2-.5-2.3-1l-1.2-.5 1.6-3.4c1.2.7 2.2 1.1 3.1 1.4.8.3 1.7.4 2.5.4s1.6-.2 2.1-.6c.5-.3.7-.8.7-1.4 0-.4-.1-.8-.3-1.1-.2-.3-.7-.7-1.3-1l-3-1.7c-1.8-1-2.9-1.9-3.6-2.6-.6-.8-.9-1.7-.9-2.8 0-1 .2-1.9.6-2.5.4-.7.9-1.2 1.6-1.7.7-.4 1.4-.8 2.1-1 .7-.2 1.6-.3 2.7-.3 1.4 0 2.3.1 3.1.3.8.2 1.3.5 1.8.6.4.2 1 .4 1.5.7l-1.5 3.4zm12.7 14.7h-8v-19.2h7.1c1.3 0 2.3.1 3 .3.6.2 1.4.7 2.2 1.3.8.7 1.2 1.8 1.2 3.2 0 1.2-.3 2.1-.9 2.8-.6.7-1.2 1.1-1.7 1.3s-1.1.3-1.8.3c1.4 0 2.6.4 3.5 1.3s1.3 2.1 1.3 3.6c0 1.7-.5 3-1.5 3.9-1.1.8-2.4 1.2-4.4 1.2m-1.7-16.4h-2.4v4.9h2.2c2.1 0 3.2-.9 3.2-2.5 0-.8-.2-1.4-.8-1.7-.5-.4-1.2-.7-2.2-.7m0 8.2h-2.4v5.4h2.4c.7 0 1.2 0 1.3-.1.4 0 .8-.2 1.3-.5.6-.3.9-1 .9-2.1 0-.9-.4-1.6-.9-2-.5-.5-1.4-.7-2.6-.7m41.5 8c-1 .2-1.9.4-2.6.5-.8.1-1.5.1-2.3.1-3.2 0-5.8-.9-7.8-2.8s-3-4.3-3-7.3c0-1.4.2-2.8.7-4.1.6-1.2 1.3-2.3 2.3-3.3 1-.9 2.1-1.7 3.3-2 1.2-.4 2.6-.7 4.3-.7 1.4 0 2.6.1 3.6.4.9.2 1.4.3 1.9.6.3.1.9.3 1.7.6l-.9 3.1-1.6-.6c-1.4-.4-2.7-.7-4-.7-2.2 0-3.9.7-5.3 1.9-1.3 1.2-2 2.7-2 4.7s.8 3.6 2.2 4.9c1.4 1.3 3.4 2 5.5 2 .6 0 1.5-.1 2.5-.4v-5.4h3.8v7.9l-2.3.6zm20.7 0c-1 .2-1.9.4-2.7.5-.7.1-1.5.1-2.3.1-3.2 0-5.9-.9-7.9-2.8s-2.9-4.3-2.9-7.3c0-1.4.2-2.8.7-4.1.6-1.2 1.3-2.3 2.3-3.3 1-.9 2.1-1.7 3.3-2 1.2-.3 2.6-.7 4.3-.7 1.4 0 2.6.1 3.5.4.9.3 1.4.3 1.9.6.4.1.9.3 1.7.6l-.9 3.1-1.6-.6c-1.4-.4-2.7-.7-3.9-.7-2.2 0-4 .7-5.3 1.9-1.3 1.2-2.1 2.7-2.1 4.7s.8 3.6 2.2 4.9c1.5 1.3 3.3 2 5.4 2 .6 0 1.5-.1 2.5-.4v-5.4h3.7v7.9l-1.9.6zM114.9 30.8v-19.2h11.7v3.1h-8v4.7h6.6v3.2h-6.6v5.2h8.5v3zM144.4 30.8v-8.2h-9.9v8.2h-3.8v-19.2h3.8v7.7h9.9v-7.7h3.7v19.2zM108 30.8l-6.4-9.1v9.1h-3.7v-19.2h3.7v9l6.1-9h4.3l-6.7 9.3 7 9.9zM214 22.6v8.2h-3.8v-8.2l-5.8-11h4.1l3.8 7.4 4.1-7.5 4.1.1zM89 22.6v8.2h-3.8v-8.2l-5.8-11h3.9l4 7.4 4.1-7.5 4.1.1z"/>
  <circle cx="25.2" cy="6.2" r="6.2"/>
  <circle cx="25.2" cy="25" r="6.2"/>
  <circle cx="43.8" cy="25" r="6.2"/>
  <circle cx="6.2" cy="25" r="6.2"/>
  <circle cx="25.2" cy="43.8" r="6.2"/>
</svg>