<svg width="50" height="50" xmlns="http://www.w3.org/2000/svg" xmlns:xlink="http://www.w3.org/1999/xlink" xml:space="preserve" overflow="hidden"><defs><clipPath id="clip0"><rect x="0" y="0" width="50" height="50"/></clipPath></defs><g clip-path="url(#clip0)"><path d="M77 16.1C74.9 15.2 73.3 14.7 71.9 14.7 71.1 14.7 70.4 14.8 69.8 15.2 69.2 15.5 69 16 69 16.5 69 16.9 69.1 17.3 69.3 17.6 69.5 17.8 70.6 18.5 72.5 19.5 74.4 20.5 75.7 21.5 76.6 22.4 77.5 23.3 77.9 24.4 77.9 25.8 77.9 27.6 77.4 28.9 76.1 29.9 74.9 30.9 73.2 31.4 71 31.4 70.6 31.4 70.1 31.4 69.9 31.3 69.7 31.3 69.2 31.2 68.8 31.2 68.4 31.1 67.9 31.1 67.5 30.9 67.1 30.8 66.3 30.4 65.2 29.9L64 29.4 65.5 26C66.7 26.7 67.8 27.1 68.6 27.4 69.4 27.7 70.2 27.8 71.1 27.8 72 27.8 72.6 27.6 73.2 27.2 73.8 26.9 74 26.4 74 25.8 74 25.4 73.9 25 73.7 24.7 73.5 24.4 73 24 72.4 23.7L69.4 22C67.7 21 66.5 20.1 65.9 19.4 65.3 18.9 64.9 17.9 64.9 16.9 64.9 15.9 65.1 15 65.6 14.4 66 13.7 66.6 13.2 67.3 12.7 68 12.3 68.6 11.9 69.4 11.7 70.2 11.5 71.1 11.4 72.2 11.4 73.5 11.4 74.5 11.5 75.3 11.7 76.1 11.9 76.6 12.1 77.1 12.3 77.6 12.5 78.1 12.7 78.6 13L77 16.1ZM166.5 29.9C165.2 30.9 163.3 31.3 161 31.3 159.8 31.3 158.7 31.2 158 31 157.1 30.8 156.3 30.3 155.5 29.8 154.6 29.2 153.9 28.5 153.6 27.5 153.3 26.5 153.1 25.2 153.1 23.4L153.1 11.6 156.7 11.6 156.7 23.6C156.7 26.5 158.3 27.9 161.3 27.9 162.7 27.9 163.7 27.6 164.5 26.8 165.2 26 165.6 25 165.6 23.6L165.6 11.6 169.3 11.6 169.3 23.4C169.3 25.2 169.1 26.6 168.8 27.5 168.2 28.3 167.5 29.1 166.5 29.9ZM184.7 16.1C182.6 15.2 181 14.7 179.7 14.7 178.8 14.7 178.1 14.8 177.6 15.2 177.1 15.5 176.8 16 176.8 16.5 176.8 16.9 176.9 17.3 177.2 17.6 177.4 17.8 178.5 18.5 180.4 19.5 182.3 20.5 183.6 21.5 184.5 22.4 185.4 23.3 185.8 24.4 185.8 25.8 185.8 27.6 185.2 28.9 184 29.9 182.8 30.9 181.1 31.4 178.9 31.4 178.4 31.4 178 31.4 177.8 31.3 177.5 31.3 177.2 31.2 176.7 31.2 176.3 31.1 175.8 31.1 175.4 30.9 175 30.8 174.2 30.4 173.1 29.9L171.9 29.4 173.5 26C174.7 26.7 175.7 27.1 176.6 27.4 177.4 27.7 178.3 27.8 179.1 27.8 179.9 27.8 180.7 27.6 181.2 27.2 181.7 26.9 181.9 26.4 181.9 25.8 181.9 25.4 181.8 25 181.6 24.7 181.4 24.4 180.9 24 180.3 23.7L177.3 22C175.5 21 174.4 20.1 173.7 19.4 173.1 18.6 172.8 17.7 172.8 16.6 172.8 15.6 173 14.7 173.4 14.1 173.8 13.4 174.3 12.9 175 12.4 175.7 12 176.4 11.6 177.1 11.4 177.8 11.2 178.7 11.1 179.8 11.1 181.2 11.1 182.1 11.2 182.9 11.4 183.7 11.6 184.2 11.9 184.7 12 185.1 12.2 185.7 12.4 186.2 12.7L184.7 16.1ZM197.4 30.8 189.4 30.8 189.4 11.6 196.5 11.6C197.8 11.6 198.8 11.7 199.5 11.9 200.1 12.1 200.9 12.6 201.7 13.2 202.5 13.9 202.9 15 202.9 16.4 202.9 17.6 202.6 18.5 202 19.2 201.4 19.9 200.8 20.3 200.3 20.5 199.8 20.7 199.2 20.8 198.5 20.8 199.9 20.8 201.1 21.2 202 22.1 202.9 23 203.3 24.2 203.3 25.7 203.3 27.4 202.8 28.7 201.8 29.6 200.7 30.4 199.4 30.8 197.4 30.8M195.7 14.4 193.3 14.4 193.3 19.3 195.5 19.3C197.6 19.3 198.7 18.4 198.7 16.8 198.7 16 198.5 15.4 197.9 15.1 197.4 14.7 196.7 14.4 195.7 14.4M195.7 22.6 193.3 22.6 193.3 28 195.7 28C196.4 28 196.9 28 197 27.9 197.4 27.9 197.8 27.7 198.3 27.4 198.9 27.1 199.2 26.4 199.2 25.3 199.2 24.4 198.8 23.7 198.3 23.3 197.8 22.8 196.9 22.6 195.7 22.6M237.2 30.6C236.2 30.8 235.3 31 234.6 31.1 233.8 31.2 233.1 31.2 232.3 31.2 229.1 31.2 226.5 30.3 224.5 28.4 222.5 26.5 221.5 24.1 221.5 21.1 221.5 19.7 221.7 18.3 222.2 17 222.8 15.8 223.5 14.7 224.5 13.7 225.5 12.8 226.6 12 227.8 11.7 229 11.3 230.4 11 232.1 11 233.5 11 234.7 11.1 235.7 11.4 236.6 11.6 237.1 11.7 237.6 12 237.9 12.1 238.5 12.3 239.3 12.6L238.4 15.7 236.8 15.1C235.4 14.7 234.1 14.4 232.8 14.4 230.6 14.4 228.9 15.1 227.5 16.3 226.2 17.5 225.5 19 225.5 21 225.5 23 226.3 24.6 227.7 25.9 229.1 27.2 231.1 27.9 233.2 27.9 233.8 27.9 234.7 27.8 235.7 27.5L235.7 22.1 239.5 22.1 239.5 30 237.2 30.6ZM257.9 30.6C256.9 30.8 256 31 255.2 31.1 254.5 31.2 253.7 31.2 252.9 31.2 249.7 31.2 247 30.3 245 28.4 243 26.5 242.1 24.1 242.1 21.1 242.1 19.7 242.3 18.3 242.8 17 243.4 15.8 244.1 14.7 245.1 13.7 246.1 12.8 247.2 12 248.4 11.7 249.6 11.4 251 11 252.7 11 254.1 11 255.3 11.1 256.2 11.4 257.1 11.7 257.6 11.7 258.1 12 258.5 12.1 259 12.3 259.8 12.6L258.9 15.7 257.3 15.1C255.9 14.7 254.6 14.4 253.4 14.4 251.2 14.4 249.4 15.1 248.1 16.3 246.8 17.5 246 19 246 21 246 23 246.8 24.6 248.2 25.9 249.7 27.2 251.5 27.9 253.6 27.9 254.2 27.9 255.1 27.8 256.1 27.5L256.1 22.1 259.8 22.1 259.8 30 257.9 30.6ZM114.9 30.8 114.9 11.6 126.6 11.6 126.6 14.7 118.6 14.7 118.6 19.4 125.2 19.4 125.2 22.6 118.6 22.6 118.6 27.8 127.1 27.8 127.1 30.8ZM144.4 30.8 144.4 22.6 134.5 22.6 134.5 30.8 130.7 30.8 130.7 11.6 134.5 11.6 134.5 19.3 144.4 19.3 144.4 11.6 148.1 11.6 148.1 30.8ZM108 30.8 101.6 21.7 101.6 30.8 97.9 30.8 97.9 11.6 101.6 11.6 101.6 20.6 107.7 11.6 112 11.6 105.3 20.9 112.3 30.8ZM214 22.6 214 30.8 210.2 30.8 210.2 22.6 204.4 11.6 208.5 11.6 212.3 19 216.4 11.5 220.5 11.6ZM89 22.6 89 30.8 85.2 30.8 85.2 22.6 79.4 11.6 83.3 11.6 87.3 19 91.4 11.5 95.5 11.6Z" fill="#234C8F" transform="scale(1.00223 1)"/><path d="M31.4 6.2C31.4 9.62417 28.6242 12.4 25.2 12.4 21.7758 12.4 19 9.62417 19 6.2 19 2.77583 21.7758-1.90735e-07 25.2-1.90735e-07 28.6242-1.90735e-07 31.4 2.77583 31.4 6.2Z" fill="#234C8F" transform="scale(1.00223 1)"/><path d="M31.4 25C31.4 28.4242 28.6242 31.2 25.2 31.2 21.7758 31.2 19 28.4242 19 25 19 21.5758 21.7758 18.8 25.2 18.8 28.6242 18.8 31.4 21.5758 31.4 25Z" fill="#234C8F" transform="scale(1.00223 1)"/><path d="M50 25C50 28.4242 47.2242 31.2 43.8 31.2 40.3758 31.2 37.6 28.4242 37.6 25 37.6 21.5758 40.3758 18.8 43.8 18.8 47.2242 18.8 50 21.5758 50 25Z" fill="#234C8F" transform="scale(1.00223 1)"/><path d="M12.4 25C12.4 28.4242 9.62417 31.2 6.2 31.2 2.77583 31.2-1.90735e-07 28.4242-1.90735e-07 25-1.90735e-07 21.5758 2.77583 18.8 6.2 18.8 9.62417 18.8 12.4 21.5758 12.4 25Z" fill="#234C8F" transform="scale(1.00223 1)"/><path d="M31.4 43.8C31.4 47.2242 28.6242 50 25.2 50 21.7758 50 19 47.2242 19 43.8 19 40.3758 21.7758 37.6 25.2 37.6 28.6242 37.6 31.4 40.3758 31.4 43.8Z" fill="#234C8F" transform="scale(1.00223 1)"/></g></svg>